<?xml version="1.0" encoding="utf-8"?>
<!-- Generator: Adobe Illustrator 28.1.0, SVG Export Plug-In . SVG Version: 6.00 Build 0)  -->
<svg version="1.1" id="Layer_1" xmlns="http://www.w3.org/2000/svg" xmlns:xlink="http://www.w3.org/1999/xlink" x="0px" y="0px"
	 viewBox="0 0 192 192" style="enable-background:new 0 0 192 192;" xml:space="preserve">
<style type="text/css">
	.st0{fill:#00A79D;}
</style>
<g>
	<path class="st0" d="M20.4,67.4H27l14.1,40l10.9-40h6.2v44.4h-6.4V69.7l-11.5,42.1h-4.5l-15.1-43v8.1c0,11.4,0.9,20,2.8,25.8
		c1.8,5.8,4.7,8.7,8.6,8.7v0.4h-6.1c-2.1,0-3.6-0.4-4.5-1.3c-0.8-0.8-1.2-2.3-1.2-4.4V67.4z"/>
	<path class="st0" d="M78.9,112.5c-2.4,0-4.6-0.4-6.6-1.2c-2.1-0.8-3.8-2-5.3-3.5c-1.5-1.5-2.7-3.4-3.5-5.7
		c-0.9-2.3-1.3-4.8-1.3-7.6c0-2.7,0.5-5.3,1.4-7.6c0.9-2.3,2.2-4.2,3.7-5.7c1.5-1.5,3.3-2.7,5.4-3.5c2-0.8,4.2-1.3,6.4-1.3
		c2.1,0,4.1,0.4,5.9,1.1c1.8,0.8,3.2,1.8,4.4,3c1.1,1.3,2,2.7,2.6,4.2c0.6,1.6,0.9,3.2,0.9,4.8H79.5c1.7,0.3,3.2,0.8,4.7,1.5
		c1.5,0.8,2.8,1.7,4,2.9c1.1,1.1,2,2.5,2.7,4c0.7,1.5,1,3.2,1,4.9c0,2.6-1.2,4.9-3.6,6.8C85.9,111.5,82.8,112.5,78.9,112.5z
		 M68.7,89.5c-0.2,1.7-0.3,3.3-0.3,4.9c0,2.8,0.4,5.3,1.2,7.5c0.8,2.2,1.8,3.9,3.1,5.2c1.3,1.3,2.7,2.2,4.2,2.9c1.5,0.7,3.1,1,4.7,1
		c2.7,0,4.9-0.8,6.8-2.3c1.9-1.5,2.8-3.6,2.8-6.2c0-2-0.5-3.9-1.5-5.6c-1-1.7-2.3-3-3.9-4.1c-1.6-1-3.3-1.8-5.2-2.4
		c-1.9-0.6-3.8-0.8-5.7-0.8H68.7z M68.8,89h18c0-1.4-0.1-2.7-0.2-3.8c-0.1-1.1-0.3-2.2-0.7-3.3c-0.3-1.1-0.8-2-1.4-2.7
		c-0.6-0.7-1.3-1.3-2.3-1.7c-1-0.4-2.1-0.7-3.4-0.7c-2.6,0-4.8,1.1-6.6,3.2C70.5,82.2,69.4,85.2,68.8,89z"/>
	<path class="st0" d="M129.4,109.6c-1.1,1-2.1,1.7-3,2.2c-0.9,0.5-1.9,0.7-2.9,0.7c-1.3,0-2.3-0.5-3-1.4c-0.7-0.9-1.1-2.3-1.1-4.3
		v-5.4c0,1-0.3,2.1-0.8,3.3c-0.5,1.2-1.2,2.4-2.1,3.6c-0.9,1.2-2,2.1-3.3,2.9c-1.3,0.8-2.8,1.2-4.3,1.2c-2.6,0-4.9-0.7-6.8-2
		c-2-1.3-3.5-3.1-4.4-5.2c-1-2.1-1.7-4.5-2.1-7.1c-0.4-2.6-0.4-5.1,0.1-7.7c0.5-2.6,1.2-4.9,2.2-7c1-2.1,2.4-3.9,4.3-5.2
		c1.8-1.3,3.9-2,6.2-2c1.2,0,2.3,0.3,3.4,0.8c1.1,0.5,2.1,1.2,2.9,2c0.8,0.8,1.6,1.7,2.3,2.7c0.7,1,1.2,2,1.6,2.9
		c0.4,0.9,0.7,1.8,0.9,2.6V64.2h6.4v42.6c0,1.2,0.1,2.1,0.3,2.6c0.2,0.5,0.6,0.8,1.2,0.8c0.2,0,0.4,0,0.7-0.1
		c0.2-0.1,0.4-0.2,0.5-0.3c0.1-0.1,0.3-0.2,0.6-0.4c0.2-0.2,0.4-0.3,0.5-0.3V109.6z M119.4,100V88.8c-0.8-3.2-2.1-5.8-4.1-7.9
		c-1.9-2-3.8-3-5.7-3c-1.1,0-2.1,0.4-3,1.1c-0.9,0.8-1.7,1.8-2.3,3c-0.6,1.3-1.2,2.7-1.6,4.4c-0.5,1.6-0.7,3.4-0.9,5.2
		c-0.1,1.8-0.1,3.7-0.1,5.5c0.1,1.8,0.3,3.5,0.8,5.2c0.4,1.6,1,3.1,1.6,4.4c0.7,1.3,1.5,2.3,2.6,3c1.1,0.8,2.2,1.1,3.5,1.1
		c2.3,0,4.2-1,5.9-3C117.8,105.9,118.9,103.3,119.4,100z"/>
	<path class="st0" d="M132.6,111.8V64.2h6.4v47.6H132.6z"/>
	<path class="st0" d="M154.7,108.2l-13.9-31.3h6.9l12.4,27.7l0.1-0.3c6-13.5,7.8-21.9,5.3-25.2c-0.9-1.2-2.3-1.7-4.2-1.7v-0.5h6
		c2.1,0,3.4,0.3,3.9,1c0.5,0.7,0.4,1.8-0.3,3.4l-10.6,23.9l1.5,3.1c1,2.1,1.6,4.2,1.9,6.2c0.3,2,0.2,3.8-0.2,5.3
		c-0.4,1.6-1.1,3-2,4.2c-0.9,1.2-2.2,2.1-3.7,2.7c-1.5,0.6-3.2,1-5.1,1c-3.2,0-5.5-1.1-7.2-3.4c-1.4-2-1.9-4.2-1.5-6.8
		c0.4-2.8,1.8-5,4-6.8C149.9,109.4,152.1,108.5,154.7,108.2z M154.9,108.7c-3.8,0.4-6.6,2-8.4,4.7c-1.4,2.1-1.8,4.4-1.4,6.9
		c0.4,2.3,1.5,4,3.3,5.2c1.1,0.7,2.4,1.1,3.8,1.1c1.9,0,3.5-0.6,4.6-1.8c1.1-1.2,1.7-2.9,1.7-5.1c0-1.9-0.6-4.2-1.8-6.8L154.9,108.7
		z"/>
</g>
</svg>
