<?xml version="1.0" encoding="utf-8"?>
<!-- Generator: Adobe Illustrator 28.1.0, SVG Export Plug-In . SVG Version: 6.00 Build 0)  -->
<svg version="1.1" id="Layer_1" xmlns="http://www.w3.org/2000/svg" xmlns:xlink="http://www.w3.org/1999/xlink" x="0px" y="0px"
	 viewBox="0 0 512 512" style="enable-background:new 0 0 512 512;" xml:space="preserve">
<style type="text/css">
	.st0{fill:#00A79D;}
</style>
<g>
	<path class="st0" d="M30.2,170.6h19.9l42.1,119.5l32.6-119.5h18.6v132.7h-19V177.6L90.1,303.3H76.7L31.7,175v24.1
		c0,34.1,2.7,59.8,8.2,77c5.5,17.2,14,25.9,25.5,25.9v1.3H47.2c-6.4,0-10.9-1.2-13.3-3.7c-2.5-2.5-3.7-6.9-3.7-13.3V170.6z"/>
	<path class="st0" d="M204.9,305.1c-7.1,0-13.7-1.2-19.9-3.7c-6.1-2.5-11.5-6-16-10.6c-4.5-4.6-8-10.3-10.6-17.1
		c-2.6-6.8-3.8-14.4-3.8-22.6c0-8.2,1.4-15.7,4.1-22.6c2.7-6.9,6.4-12.6,11.1-17.1c4.6-4.5,10-8.1,16-10.5c6-2.5,12.4-3.7,19.1-3.7
		c6.4,0,12.2,1.1,17.5,3.4c5.3,2.3,9.7,5.3,13.1,9c3.4,3.8,6.1,8,7.9,12.6c1.9,4.7,2.8,9.5,2.8,14.4h-39.4c4.9,0.8,9.6,2.3,14.1,4.6
		c4.5,2.3,8.4,5.1,11.8,8.5c3.4,3.4,6.1,7.4,8.1,12c2,4.6,3,9.5,3,14.6c0,7.9-3.6,14.7-10.7,20.3
		C225.9,302.3,216.5,305.1,204.9,305.1z M174.6,236.6c-0.6,5.1-0.9,9.9-0.9,14.6c0,8.3,1.2,15.8,3.5,22.4c2.3,6.6,5.4,11.8,9.3,15.5
		c3.9,3.8,8.1,6.7,12.6,8.6c4.6,1.9,9.3,2.9,14.2,2.9c8,0,14.7-2.3,20.4-6.9c5.6-4.6,8.4-10.8,8.4-18.6c0-6.1-1.5-11.7-4.4-16.7
		c-2.9-5-6.8-9.1-11.5-12.2c-4.8-3.1-9.9-5.5-15.6-7.1c-5.6-1.7-11.4-2.5-17.2-2.5H174.6z M174.8,235.1h53.9
		c-0.1-4.3-0.3-8.1-0.6-11.4c-0.3-3.3-1-6.5-2-9.8c-1-3.3-2.4-6-4.1-8.1c-1.7-2.1-4-3.8-6.8-5.1c-2.9-1.3-6.2-2-10.1-2
		c-7.9,0-14.5,3.2-19.7,9.7C180,214.8,176.5,223.7,174.8,235.1z"/>
	<path class="st0" d="M355.8,296.6c-3.3,3-6.2,5.1-8.9,6.5c-2.7,1.4-5.6,2-8.7,2c-3.8,0-6.8-1.4-9-4.1c-2.2-2.7-3.3-7-3.3-12.8
		v-16.1c-0.1,2.9-0.9,6.2-2.5,9.9c-1.5,3.7-3.6,7.3-6.2,10.7c-2.6,3.5-5.9,6.4-9.9,8.7c-4,2.4-8.3,3.6-12.8,3.6
		c-7.7,0-14.5-2-20.4-6c-5.9-4-10.3-9.1-13.2-15.5c-2.9-6.4-5-13.4-6.3-21.1c-1.3-7.7-1.2-15.3,0.2-23c1.4-7.6,3.7-14.7,6.6-21
		c3-6.4,7.2-11.5,12.7-15.5c5.5-4,11.7-6,18.6-6c3.5,0,6.8,0.8,10.2,2.4c3.3,1.6,6.2,3.6,8.7,6c2.5,2.4,4.8,5.2,6.8,8.1
		c2,3,3.7,5.9,4.9,8.7c1.2,2.8,2.1,5.4,2.5,7.7v-68.9h19v127.2c0,3.7,0.3,6.3,0.8,7.8c0.6,1.5,1.7,2.3,3.5,2.3
		c0.6,0,1.3-0.1,1.9-0.4c0.7-0.3,1.2-0.5,1.6-0.8c0.4-0.2,1-0.6,1.7-1.2c0.7-0.6,1.2-0.9,1.4-1V296.6z M325.8,267.8v-33.3
		c-2.3-9.6-6.4-17.4-12.1-23.5c-5.7-6-11.4-9-17-9c-3.3,0-6.3,1.1-9.1,3.4c-2.8,2.3-5.1,5.3-7,9.1c-1.9,3.8-3.5,8.1-4.9,13
		c-1.4,4.9-2.2,10.1-2.6,15.5c-0.4,5.5-0.4,10.9-0.2,16.3c0.2,5.4,1,10.6,2.3,15.5c1.3,4.9,2.9,9.3,4.9,13c2,3.8,4.5,6.8,7.7,9.1
		c3.1,2.3,6.6,3.4,10.5,3.4c6.8,0,12.7-2.9,17.7-8.8C321,285.7,324.3,277.8,325.8,267.8z"/>
	<path class="st0" d="M365.2,303.3V161.1h19v142.2H365.2z"/>
	<path class="st0" d="M431.3,292.5l-41.6-93.4h20.7l36.9,82.8l0.4-1c18-40.3,23.3-65.3,15.9-75.1c-2.6-3.5-6.8-5.2-12.5-5.2v-1.5
		h17.9c6.3,0,10.2,1,11.8,3c1.5,2,1.2,5.4-1,10.3l-31.7,71.4l4.3,9.3c3,6.4,4.9,12.5,5.7,18.4c0.8,5.9,0.6,11.2-0.6,16
		c-1.2,4.7-3.3,8.9-6.1,12.4c-2.8,3.5-6.5,6.3-11,8.2c-4.5,1.9-9.5,2.9-15.1,2.9c-9.4,0-16.6-3.4-21.4-10.1
		c-4.1-5.9-5.6-12.7-4.3-20.5c1.3-8.3,5.2-15,11.8-20.2C417,295.9,423.6,293.3,431.3,292.5z M431.9,293.9c-11.5,1.3-19.8,6-25,14.1
		c-4.1,6.4-5.5,13.3-4.2,20.7c1.3,6.9,4.5,12.1,9.7,15.5c3.3,2.2,7.2,3.3,11.5,3.3c5.8,0,10.4-1.8,13.7-5.5c3.4-3.7,5-8.7,5-15.1
		c0-5.6-1.8-12.4-5.3-20.5L431.9,293.9z"/>
</g>
</svg>
