<?xml version="1.0" encoding="utf-8"?>
<!-- Generator: Adobe Illustrator 28.1.0, SVG Export Plug-In . SVG Version: 6.00 Build 0)  -->
<svg version="1.1" id="Layer_1" xmlns="http://www.w3.org/2000/svg" xmlns:xlink="http://www.w3.org/1999/xlink" x="0px" y="0px"
	 viewBox="0 0 250 100" style="enable-background:new 0 0 250 100;" xml:space="preserve">
<style type="text/css">
	.st0{fill:#00A79D;}
</style>
<g>
	<path class="st0" d="M32.2,14.9h8.2L57.7,64l13.4-49.1h7.6v54.5h-7.8V17.8L56.8,69.4h-5.5L32.8,16.7v9.9c0,14,1.1,24.6,3.4,31.7
		c2.3,7.1,5.8,10.6,10.5,10.6v0.5h-7.5c-2.6,0-4.5-0.5-5.5-1.5c-1-1-1.5-2.8-1.5-5.5V14.9z"/>
	<path class="st0" d="M104,70.2c-2.9,0-5.6-0.5-8.2-1.5c-2.5-1-4.7-2.5-6.6-4.3c-1.9-1.9-3.3-4.2-4.4-7c-1.1-2.8-1.6-5.9-1.6-9.3
		c0-3.4,0.6-6.5,1.7-9.3c1.1-2.8,2.6-5.2,4.5-7c1.9-1.9,4.1-3.3,6.6-4.3c2.5-1,5.1-1.5,7.8-1.5c2.6,0,5,0.5,7.2,1.4
		c2.2,0.9,4,2.2,5.4,3.7c1.4,1.5,2.5,3.3,3.3,5.2C120.6,38,121,40,121,42h-16.2c2,0.3,4,1,5.8,1.9c1.8,0.9,3.5,2.1,4.8,3.5
		c1.4,1.4,2.5,3,3.3,4.9c0.8,1.9,1.2,3.9,1.2,6c0,3.2-1.5,6-4.4,8.3C112.6,69,108.8,70.2,104,70.2z M91.6,42c-0.3,2.1-0.4,4.1-0.4,6
		c0,3.4,0.5,6.5,1.4,9.2c1,2.7,2.2,4.8,3.8,6.4c1.6,1.6,3.3,2.7,5.2,3.5c1.9,0.8,3.8,1.2,5.8,1.2c3.3,0,6.1-1,8.4-2.9
		c2.3-1.9,3.5-4.4,3.5-7.6c0-2.5-0.6-4.8-1.8-6.9c-1.2-2.1-2.8-3.7-4.7-5c-2-1.3-4.1-2.2-6.4-2.9s-4.7-1-7.1-1H91.6z M91.6,41.4
		h22.1c0-1.8-0.1-3.3-0.2-4.7c-0.1-1.3-0.4-2.7-0.8-4c-0.4-1.3-1-2.4-1.7-3.3c-0.7-0.9-1.6-1.6-2.8-2.1c-1.2-0.5-2.6-0.8-4.2-0.8
		c-3.2,0-5.9,1.3-8.1,4C93.8,33.1,92.3,36.7,91.6,41.4z"/>
	<path class="st0" d="M166,66.7c-1.3,1.2-2.6,2.1-3.7,2.7c-1.1,0.6-2.3,0.8-3.6,0.8c-1.5,0-2.8-0.6-3.7-1.7
		c-0.9-1.1-1.4-2.9-1.4-5.2v-6.6c-0.1,1.2-0.4,2.5-1,4.1c-0.6,1.5-1.5,3-2.5,4.4c-1.1,1.4-2.4,2.6-4.1,3.6c-1.6,1-3.4,1.5-5.2,1.5
		c-3.2,0-6-0.8-8.4-2.5c-2.4-1.6-4.2-3.8-5.4-6.4c-1.2-2.6-2.1-5.5-2.6-8.7c-0.5-3.2-0.5-6.3,0.1-9.4c0.6-3.1,1.5-6,2.7-8.6
		c1.2-2.6,3-4.7,5.2-6.4c2.3-1.6,4.8-2.5,7.6-2.5c1.4,0,2.8,0.3,4.2,1c1.4,0.6,2.6,1.5,3.6,2.5c1,1,2,2.1,2.8,3.3
		c0.8,1.2,1.5,2.4,2,3.6c0.5,1.2,0.8,2.2,1,3.2V11h7.8v52.2c0,1.5,0.1,2.6,0.3,3.2c0.2,0.6,0.7,0.9,1.4,0.9c0.3,0,0.5-0.1,0.8-0.2
		c0.3-0.1,0.5-0.2,0.7-0.3c0.2-0.1,0.4-0.3,0.7-0.5s0.5-0.4,0.6-0.4V66.7z M153.7,54.9V41.2c-1-4-2.6-7.2-5-9.6
		c-2.4-2.5-4.7-3.7-7-3.7c-1.3,0-2.6,0.5-3.7,1.4c-1.1,0.9-2.1,2.2-2.9,3.7c-0.8,1.6-1.4,3.3-2,5.4c-0.6,2-0.9,4.1-1.1,6.4
		c-0.2,2.2-0.2,4.5-0.1,6.7c0.1,2.2,0.4,4.4,1,6.4c0.5,2,1.2,3.8,2,5.4c0.8,1.6,1.9,2.8,3.2,3.7c1.3,0.9,2.7,1.4,4.3,1.4
		c2.8,0,5.2-1.2,7.3-3.6C151.7,62.2,153.1,58.9,153.7,54.9z"/>
	<path class="st0" d="M169.9,69.4V11h7.8v58.4H169.9z"/>
	<path class="st0" d="M197,65L180,26.6h8.5l15.2,34l0.2-0.4c7.4-16.6,9.6-26.8,6.5-30.9c-1.1-1.4-2.8-2.1-5.1-2.1v-0.6h7.3
		c2.6,0,4.2,0.4,4.8,1.2c0.6,0.8,0.5,2.2-0.4,4.2l-13,29.4l1.8,3.8c1.2,2.6,2,5.1,2.3,7.6c0.3,2.4,0.3,4.6-0.2,6.6
		c-0.5,1.9-1.3,3.6-2.5,5.1c-1.2,1.5-2.7,2.6-4.5,3.4c-1.9,0.8-3.9,1.2-6.2,1.2c-3.9,0-6.8-1.4-8.8-4.1c-1.7-2.4-2.3-5.2-1.8-8.4
		c0.5-3.4,2.2-6.2,4.9-8.3C191.2,66.4,193.9,65.3,197,65z M197.3,65.6c-4.7,0.5-8.1,2.5-10.3,5.8c-1.7,2.6-2.3,5.5-1.7,8.5
		c0.5,2.8,1.9,5,4,6.4c1.4,0.9,2.9,1.4,4.7,1.4c2.4,0,4.3-0.8,5.6-2.3c1.4-1.5,2.1-3.6,2.1-6.2c0-2.3-0.7-5.1-2.2-8.4L197.3,65.6z"
		/>
</g>
</svg>
